<svg width="430" height="310" viewBox="0 0 430 310" fill="none" xmlns="http://www.w3.org/2000/svg">
<path d="M-45.9837 102.545C-44.5419 91.8969 -37.3301 82.9185 -27.243 79.2141L67.9165 44.2676C69.5065 43.6837 71.1446 43.2402 72.812 42.9422L197.233 20.7076L422.684 0.261295C438.74 -1.19482 452.901 10.7236 454.208 26.7923L469.211 211.295C470.961 232.815 449.421 248.632 429.411 240.521L412.688 233.741C407.929 231.812 402.744 231.181 397.662 231.912L274.289 249.663C271.699 250.035 269.171 250.757 266.775 251.808L196.935 282.427C192.533 284.357 187.72 285.162 182.929 284.771L46.7232 273.639C39.7269 273.067 32.7606 275.052 27.1168 279.226L-4.67416 302.738C-9.31323 306.169 -14.8703 308.138 -20.6346 308.394L-39.4971 309.229C-57.5609 310.03 -71.9445 294.285 -69.5185 276.367L-45.9837 102.545Z" fill="url(#paint0_linear_1_19)"/>
<defs>
<linearGradient id="paint0_linear_1_19" x1="158.5" y1="178" x2="183.782" y2="291.477" gradientUnits="userSpaceOnUse">
<stop/>
<stop offset="1" stop-color="#193FAA"/>
</linearGradient>
</defs>
</svg>
